<svg aria-hidden="true" focusable="false" width="192" height="60" viewBox="0 0 192 60" xmlns="http://www.w3.org/2000/svg"><defs><linearGradient x1="100%" y1="0%" x2="0%" y2="100%" id="logo-5euros"><stop stop-color="#2993D1" offset="0%"></stop><stop stop-color="#4DD2B8" offset="100%"></stop></linearGradient></defs><g fill="none"><path d="M77.69 30.097l1.4-8.097h6.777l-.258 2.622h-4.49l-.487 2.853c.69-.294 1.332-.441 1.927-.441 1.38 0 2.516.496 3.409 1.489.893.993 1.339 2.259 1.339 3.797 0 1.566-.48 2.867-1.441 3.902-.96 1.035-2.171 1.552-3.632 1.552-1.42 0-2.648-.472-3.683-1.416-1.035-.944-1.552-2.108-1.552-3.493h2.698c.284 1.566 1.102 2.349 2.455 2.349.717 0 1.305-.266 1.765-.797.46-.531.69-1.217.69-2.056 0-.783-.23-1.44-.69-1.972-.46-.531-1.042-.797-1.745-.797-.446 0-.818.084-1.116.252-.298.168-.622.475-.974.923l-2.394-.671zm23.45 2.832h-8.704c.162.699.517 1.255 1.065 1.668.548.413 1.228.619 2.039.619.568 0 1.035-.084 1.4-.252.365-.168.724-.468 1.075-.902h2.942c-.338 1.091-1.008 1.982-2.009 2.675-1.001.692-2.117 1.038-3.348 1.038-1.704 0-3.145-.58-4.322-1.741s-1.765-2.594-1.765-4.3.575-3.154 1.725-4.342c1.15-1.189 2.55-1.783 4.2-1.783 1.677 0 3.064.587 4.159 1.762 1.096 1.175 1.643 2.671 1.643 4.489 0 .378-.034.734-.101 1.07zm-8.785-2.454h6.229c-.352-1.538-1.38-2.307-3.084-2.307-1.664 0-2.712.769-3.145 2.307zm21.039-4.594v11.621h-2.496v-1.112c-.5.503-.994.86-1.481 1.07-.487.21-1.069.315-1.745.315-2.854 0-4.281-1.888-4.281-5.664v-6.23h2.698v5.685c0 1.357.156 2.304.467 2.842.311.538.866.808 1.664.808.92 0 1.562-.283 1.927-.85.365-.566.548-1.57.548-3.01v-5.475h2.698zm2.533 11.621v-11.621h2.475v1.133c.352-.531.703-.899 1.055-1.101.352-.203.805-.304 1.359-.304h.223v2.685c-1.61 0-2.414.916-2.414 2.748v6.461h-2.698zm12.481-11.894c1.677 0 3.094.591 4.251 1.773 1.156 1.182 1.735 2.626 1.735 4.332 0 1.664-.582 3.091-1.745 4.279-1.163 1.189-2.57 1.783-4.22 1.783s-3.06-.591-4.23-1.773c-1.17-1.182-1.755-2.619-1.755-4.311 0-1.678.582-3.112 1.745-4.3 1.163-1.189 2.57-1.783 4.22-1.783zm0 2.559c-.893 0-1.657.343-2.293 1.028-.636.685-.954 1.517-.954 2.496 0 .979.318 1.811.954 2.496.636.685 1.4 1.028 2.293 1.028.906 0 1.677-.343 2.313-1.028.636-.685.954-1.517.954-2.496 0-.979-.318-1.811-.954-2.496-.636-.685-1.407-1.028-2.313-1.028zm7.402 5.643h2.719c.135.489.321.846.558 1.07.237.224.551.336.943.336.352 0 .642-.105.872-.315.23-.21.345-.482.345-.818 0-.35-.115-.615-.345-.797-.23-.182-.828-.441-1.796-.776-.967-.336-1.691-.766-2.171-1.29-.48-.524-.72-1.213-.72-2.066 0-.993.358-1.832 1.075-2.517.717-.685 1.603-1.028 2.658-1.028 1.069 0 1.951.325 2.648.975.697.65 1.045 1.486 1.045 2.507h-2.638c-.122-.615-.473-.923-1.055-.923-.284 0-.528.091-.73.273-.203.182-.304.413-.304.692 0 .266.085.472.254.619.169.147.47.29.903.43l.751.231c1.136.364 1.941.801 2.414 1.311.473.51.71 1.206.71 2.087 0 1.119-.389 2.059-1.167 2.821s-1.728 1.143-2.851 1.143c-1.19 0-2.144-.343-2.861-1.028-.717-.685-1.136-1.664-1.258-2.937zm9.553 3.922v-2.636h2.646v2.636h-2.646zm12.45-3.748h2.984c-.451 1.277-1.15 2.265-2.099 2.965-.948.7-2.072 1.05-3.372 1.05-1.631 0-3.02-.58-4.167-1.74-1.147-1.16-1.721-2.571-1.721-4.232 0-1.689.56-3.106 1.681-4.252s2.496-1.719 4.127-1.719c1.313 0 2.46.357 3.441 1.071.981.714 1.684 1.716 2.108 3.007h-2.984c-.517-1.043-1.372-1.565-2.566-1.565-.928 0-1.684.316-2.268.947-.583.632-.875 1.462-.875 2.492 0 1.002.305 1.833.915 2.492.61.659 1.372.988 2.287.988 1.048 0 1.883-.501 2.506-1.503zm10.298-5.416c-.875 0-1.624.336-2.248 1.009-.623.673-.935 1.49-.935 2.451 0 .961.312 1.778.935 2.451s1.372 1.009 2.248 1.009c.888 0 1.644-.336 2.268-1.009.623-.673.935-1.49.935-2.451 0-.961-.312-1.778-.935-2.451s-1.379-1.009-2.268-1.009zm0-2.512c1.644 0 3.033.58 4.167 1.74 1.134 1.16 1.701 2.577 1.701 4.252 0 1.634-.57 3.034-1.711 4.201-1.14 1.167-2.52 1.75-4.137 1.75-1.618 0-3-.58-4.147-1.74-1.147-1.16-1.721-2.571-1.721-4.232 0-1.647.57-3.055 1.711-4.221 1.14-1.167 2.52-1.75 4.137-1.75zm7.36 11.676v-11.408h2.427v1.071c.716-.892 1.671-1.339 2.864-1.339.769 0 1.406.137 1.91.412.504.275.948.728 1.333 1.359.862-1.181 2.036-1.771 3.521-1.771 2.984 0 4.475 1.695 4.475 5.086v6.59h-2.646v-6.26c0-1.016-.162-1.754-.487-2.214-.325-.46-.852-.69-1.581-.69-.796 0-1.366.271-1.711.813-.345.542-.517 1.452-.517 2.729v5.622h-2.646v-6.26c0-1.016-.169-1.754-.507-2.214-.338-.46-.879-.69-1.621-.69-.796 0-1.356.264-1.681.793-.325.529-.487 1.445-.487 2.749v5.622h-2.646z" fill="#fff"></path><path d="M30 52.5v7.5c-16.569 0-30-13.431-30-30 0-16.569 13.431-30 30-30 16.569 0 30 13.431 30 30 0 11.166-6.1 20.906-15.149 26.072 2.399-3.103 3.899-6.931 3.899-11.072 0-.787-.054-1.562-.158-2.323 2.466-3.61 3.908-7.975 3.908-12.677 0-12.426-10.074-22.5-22.5-22.5s-22.5 10.074-22.5 22.5 10.074 22.5 22.5 22.5zm-13.636-14.318l3.136-15.682h7.5l-1.647 8.234c1.463-.476 3.025-.734 4.647-.734 8.284 0 15 6.716 15 15 0 8.284-6.716 15-15 15v-7.5c4.142 0 7.5-3.358 7.5-7.5 0-4.142-3.358-7.5-7.5-7.5-2.936 0-5.478 1.687-6.71 4.145l-6.927-3.463zm4.636-23.182h19.5l-1.5 7.5h-19.5l1.5-7.5z" fill="url(#logo-5euros)"></path></g></svg>