<?xml version="1.0" encoding="utf-8"?>
<!-- Generator: Adobe Illustrator 24.3.0, SVG Export Plug-In . SVG Version: 6.00 Build 0)  -->
<svg version="1.1" id="CAFR" xmlns="http://www.w3.org/2000/svg" xmlns:xlink="http://www.w3.org/1999/xlink" x="0px" y="0px"
	 width="124.1192px" height="27.1592px" viewBox="0 0 124.1192 27.1592" style="enable-background:new 0 0 124.1192 27.1592;"
	 xml:space="preserve">
<style type="text/css">
	.st0{fill:#FFFFFF;}
	.st1{fill-rule:evenodd;clip-rule:evenodd;fill:url(#SVGID_1_);}
	.st2{fill-rule:evenodd;clip-rule:evenodd;fill:#FFFFFF;}
</style>
<g>
	<g>
		<g id="XMLID_114_">
			<path class="st0" d="M34.7862,7.9229h-3.8438V1.8672h3.8438v0.8564h-2.9043v1.7119h2.749V5.25h-2.749v1.8164h2.9043V7.9229z
				 M32.3692,1.2842L33.6153,0h1.083L33.334,1.2842H32.3692z"/>
			<path class="st0" d="M39.1494,4.8467c-0.1055-0.4443-0.4746-0.7764-1.0791-0.7764c-0.7549,0-1.2168,0.5791-1.2168,1.5527
				c0,0.9902,0.4658,1.582,1.2168,1.582c0.5713,0,0.9609-0.2598,1.0791-0.751h0.877c-0.1182,0.9189-0.8223,1.5566-1.9512,1.5566
				c-1.3301,0-2.1445-0.8984-2.1445-2.3877c0-1.4648,0.8096-2.3584,2.1396-2.3584c1.1455,0,1.8379,0.667,1.9561,1.582H39.1494z"/>
			<path class="st0" d="M40.9483,5.6357c0-1.4727,0.8223-2.3711,2.1572-2.3711c1.3301,0,2.1523,0.8984,2.1523,2.3711
				c0,1.4814-0.8184,2.375-2.1523,2.375C41.7666,8.0107,40.9483,7.1172,40.9483,5.6357z M44.3301,5.6357
				c0-0.9902-0.4443-1.5693-1.2246-1.5693c-0.7852,0-1.2256,0.5791-1.2256,1.5693c0,0.999,0.4404,1.5732,1.2256,1.5732
				C43.8858,7.209,44.3301,6.6299,44.3301,5.6357z"/>
			<path class="st0" d="M50.3135,7.9229h-0.8691V7.1963h-0.0713c-0.2227,0.5205-0.6885,0.8145-1.3809,0.8145
				c-1.0107,0-1.5732-0.6172-1.5732-1.6914V3.3525h0.9023V6.085c0,0.7383,0.2979,1.0908,0.9609,1.0908
				c0.7305,0,1.1289-0.4326,1.1289-1.1494V3.3525h0.9023V7.9229z"/>
			<path class="st0" d="M52.9629,2.2158V3.374h0.9912v0.7598h-0.9912v2.3496c0,0.4785,0.1973,0.6885,0.6465,0.6885
				c0.1387,0,0.2188-0.0088,0.3447-0.0215v0.751c-0.1475,0.0254-0.3154,0.0469-0.4912,0.0469c-1.0029,0-1.4014-0.3525-1.4014-1.2344
				V4.1338H51.335V3.374h0.7266V2.2158H52.9629z"/>
			<path class="st0" d="M58.9532,6.6885c-0.2061,0.8184-0.9355,1.3223-1.9805,1.3223c-1.3096,0-2.1104-0.8984-2.1104-2.3584
				s0.8174-2.3877,2.1064-2.3877c1.2715,0,2.0391,0.8691,2.0391,2.3037v0.3145h-3.2266v0.0508
				c0.0293,0.8018,0.4951,1.3096,1.2168,1.3096c0.5449,0,0.9189-0.1973,1.0869-0.5547H58.9532z M55.7813,5.2158h2.3076
				c-0.0215-0.7168-0.458-1.1826-1.125-1.1826S55.8311,4.5029,55.7813,5.2158z"/>
			<path class="st0" d="M60.211,3.3525h0.8682v0.7012h0.0674c0.1299-0.4492,0.6377-0.7764,1.2334-0.7764
				c0.1348,0,0.3066,0.0127,0.4033,0.0381v0.8896c-0.0762-0.0254-0.3447-0.0547-0.5039-0.0547c-0.6836,0-1.167,0.4316-1.167,1.0742
				v2.6982H60.211V3.3525z"/>
			<path class="st0" d="M67.92,3.2646c1.0283,0,1.6992,0.4785,1.7881,1.2842h-0.8643C68.7598,4.2129,68.4317,3.999,67.92,3.999
				c-0.5029,0-0.8848,0.2393-0.8848,0.5957c0,0.2734,0.2305,0.4453,0.7256,0.5586l0.7598,0.1758
				c0.8682,0.2021,1.2754,0.5752,1.2754,1.2461c0,0.8604-0.8018,1.4355-1.8926,1.4355c-1.0869,0-1.7959-0.4912-1.876-1.3008h0.9023
				c0.1133,0.3525,0.4492,0.5703,0.9951,0.5703c0.5615,0,0.9609-0.251,0.9609-0.6162c0-0.2734-0.2148-0.4492-0.6719-0.5586
				L67.417,5.9209c-0.8691-0.2051-1.2715-0.5957-1.2715-1.2754C66.1455,3.8359,66.8877,3.2646,67.92,3.2646z"/>
			<path class="st0" d="M74.8555,7.9229h-0.8682V7.1963h-0.0713c-0.2227,0.5205-0.6885,0.8145-1.3809,0.8145
				c-1.0117,0-1.5732-0.6172-1.5732-1.6914V3.3525h0.9014V6.085c0,0.7383,0.2988,1.0908,0.9609,1.0908
				c0.7305,0,1.1289-0.4326,1.1289-1.1494V3.3525h0.9023V7.9229z"/>
			<path class="st0" d="M76.2862,3.3525h0.8691v0.7012h0.0674c0.1299-0.4492,0.6377-0.7764,1.2334-0.7764
				c0.1338,0,0.3057,0.0127,0.4023,0.0381v0.8896c-0.0752-0.0254-0.3438-0.0547-0.5029-0.0547c-0.6846,0-1.167,0.4316-1.167,1.0742
				v2.6982h-0.9023V3.3525z"/>
		</g>
		<g id="XMLID_113_">
			<path class="st0" d="M38.1924,20.8076H33.459l-1.1367,3.3564h-2.0049l4.4834-12.4189h2.083l4.4834,12.4189h-2.0391
				L38.1924,20.8076z M33.9493,19.2588h3.752l-1.8496-5.4482h-0.0518L33.9493,19.2588z"/>
			<path class="st0" d="M51.0498,19.6377c0,2.8135-1.5059,4.6211-3.7783,4.6211c-1.29,0-2.3145-0.5771-2.8486-1.584h-0.043v4.4844
				h-1.8584V15.1104h1.7988v1.5059h0.0342c0.5166-0.9717,1.6182-1.6006,2.8828-1.6006
				C49.5352,15.0156,51.0498,16.832,51.0498,19.6377z M49.1397,19.6377c0-1.833-0.9473-3.0381-2.3926-3.0381
				c-1.4199,0-2.375,1.2305-2.375,3.0381c0,1.8242,0.9551,3.0459,2.375,3.0459C48.1924,22.6836,49.1397,21.4873,49.1397,19.6377z"/>
			<path class="st0" d="M61.0147,19.6377c0,2.8135-1.5059,4.6211-3.7783,4.6211c-1.29,0-2.3145-0.5771-2.8486-1.584h-0.043v4.4844
				h-1.8584V15.1104h1.7988v1.5059h0.0342c0.5166-0.9717,1.6182-1.6006,2.8828-1.6006C59.5,15.0156,61.0147,16.832,61.0147,19.6377z
				 M59.1045,19.6377c0-1.833-0.9473-3.0381-2.3926-3.0381c-1.4199,0-2.375,1.2305-2.375,3.0381
				c0,1.8242,0.9551,3.0459,2.375,3.0459C58.1573,22.6836,59.1045,21.4873,59.1045,19.6377z"/>
			<path class="st0" d="M62.5196,11.7451h1.8594v12.4189h-1.8594V11.7451z"/>
			<path class="st0" d="M74.0547,21.5049c-0.25,1.6436-1.8506,2.7715-3.8984,2.7715c-2.6338,0-4.2686-1.7646-4.2686-4.5957
				c0-2.8398,1.6436-4.6816,4.1904-4.6816c2.5049,0,4.0801,1.7207,4.0801,4.4658v0.6367h-6.3945v0.1123
				c0,1.5488,0.9727,2.5645,2.4355,2.5645c1.0322,0,1.8418-0.4902,2.0908-1.2734H74.0547z M67.7725,18.8027h4.5264
				c-0.043-1.3857-0.9297-2.2979-2.2207-2.2979C68.7959,16.5049,67.8672,17.4346,67.7725,18.8027z"/>
			<path class="st0" d="M90.2012,24.1641v-9.1396h-0.0605l-3.7432,9.0449h-1.4287l-3.7529-9.0449h-0.0596v9.1396h-1.7559V11.7451
				h2.2295l4.0186,9.8027h0.0684l4.0107-9.8027h2.2373v12.4189H90.2012z"/>
			<path class="st0" d="M101.875,24.1641h-1.7812v-1.5576h-0.043c-0.5166,1.084-1.4209,1.6611-2.8057,1.6611
				c-1.9707,0-3.1758-1.2734-3.1758-3.3477v-5.8096h1.8584v5.4482c0,1.377,0.6543,2.1084,1.9365,2.1084
				c1.3428,0,2.1514-0.9297,2.1514-2.3408v-5.2158h1.8594V24.1641z"/>
			<path class="st0" d="M107.169,15.0078c2.0059,0,3.4424,1.1094,3.4854,2.71h-1.7471c-0.0771-0.7998-0.7568-1.29-1.79-1.29
				c-1.0068,0-1.6777,0.4639-1.6777,1.1699c0,0.542,0.4473,0.9033,1.3857,1.1357l1.5234,0.3535
				c1.8242,0.4385,2.5127,1.1094,2.5127,2.4355c0,1.6348-1.5488,2.7539-3.7607,2.7539c-2.1348,0-3.5713-1.0938-3.709-2.7461h1.8408
				c0.1299,0.8691,0.8262,1.334,1.9541,1.334c1.1104,0,1.8066-0.4561,1.8066-1.1787c0-0.5596-0.3438-0.8604-1.29-1.1016
				l-1.6182-0.3955c-1.6348-0.3965-2.4609-1.2314-2.4609-2.4873C103.6241,16.1006,105.0606,15.0078,107.169,15.0078z"/>
			<path class="st0" d="M112.3155,12.7266c0-0.5938,0.4814-1.0674,1.0752-1.0674c0.6025,0,1.085,0.4736,1.085,1.0674
				c0,0.585-0.4824,1.0586-1.085,1.0586C112.7969,13.7852,112.3155,13.3115,112.3155,12.7266z M112.462,15.1104h1.8584v9.0537
				h-1.8584V15.1104z"/>
			<path class="st0" d="M122.3291,18.2256c-0.1631-0.9551-0.9121-1.6689-2.1338-1.6689c-1.4287,0-2.376,1.1963-2.376,3.0811
				c0,1.9277,0.9561,3.0889,2.3926,3.0889c1.1533,0,1.9111-0.5762,2.1172-1.626h1.79c-0.2061,1.9014-1.7295,3.1758-3.9238,3.1758
				c-2.582,0-4.2686-1.7646-4.2686-4.6387c0-2.8145,1.6865-4.6387,4.251-4.6387c2.3232,0,3.7695,1.4629,3.9248,3.2266H122.3291z"/>
		</g>
	</g>
	<g>
		<linearGradient id="SVGID_1_" gradientUnits="userSpaceOnUse" x1="12.5817" y1="25.0658" x2="12.5817" y2="0.5424">
			<stop  offset="0" style="stop-color:#FA233B"/>
			<stop  offset="1" style="stop-color:#FB5C74"/>
		</linearGradient>
		<path class="st1" d="M25.1633,7.8715c0-0.3005,0.0001-0.6011-0.0017-0.9016c-0.0015-0.2532-0.0045-0.5063-0.0113-0.7594
			C25.1354,5.6592,25.103,5.1031,25.005,4.558c-0.0995-0.5536-0.2618-1.0688-0.5179-1.5717c-0.2515-0.494-0.58-0.946-0.972-1.338
			c-0.392-0.392-0.8441-0.7206-1.3382-0.9721c-0.5027-0.2559-1.0176-0.4182-1.5709-0.5177
			c-0.5454-0.098-1.1017-0.1305-1.6531-0.1454c-0.2531-0.0068-0.5062-0.0098-0.7594-0.0113
			c-0.3005-0.0018-0.6011-0.0017-0.9016-0.0017H7.8715c-0.3005,0-0.6011-0.0001-0.9016,0.0017
			C6.7167,0.0033,6.4636,0.0062,6.2105,0.0131C5.659,0.028,5.1027,0.0605,4.5573,0.1585C4.0041,0.2579,3.4891,0.4203,2.9865,0.6762
			C2.4924,0.9277,2.0403,1.2563,1.6483,1.6483c-0.392,0.392-0.7205,0.844-0.972,1.338C0.4202,3.4892,0.2578,4.0044,0.1584,4.558
			C0.0604,5.1031,0.028,5.6592,0.0131,6.2105C0.0062,6.4636,0.0033,6.7167,0.0018,6.9698
			c-0.0018,0.3005-0.0017,0.6011-0.0017,0.9016v9.4205c0,0.3005-0.0001,0.6011,0.0017,0.9016
			c0.0015,0.2532,0.0045,0.5063,0.0113,0.7594c0.0149,0.5513,0.0474,1.1074,0.1453,1.6525
			c0.0995,0.5536,0.2618,1.0688,0.5179,1.5717c0.2515,0.494,0.58,0.946,0.972,1.338c0.392,0.392,0.8441,0.7206,1.3382,0.9721
			c0.5027,0.2559,1.0176,0.4182,1.5709,0.5177c0.5454,0.098,1.1017,0.1305,1.6531,0.1454c0.2531,0.0068,0.5062,0.0098,0.7594,0.0113
			c0.3005,0.0018,0.6011,0.0017,0.9016,0.0017h9.4205c0.3005,0,0.6011,0.0001,0.9016-0.0017
			c0.2532-0.0015,0.5063-0.0045,0.7594-0.0113c0.5515-0.0149,1.1078-0.0474,1.6531-0.1454
			c0.5533-0.0994,1.0682-0.2618,1.5709-0.5177c0.4941-0.2515,0.9462-0.5801,1.3382-0.9721c0.392-0.392,0.7205-0.844,0.972-1.338
			c0.2561-0.5029,0.4184-1.0181,0.5179-1.5717c0.0979-0.5452,0.1304-1.1013,0.1453-1.6525
			c0.0068-0.2531,0.0098-0.5062,0.0113-0.7594c0.0018-0.3005,0.0017-0.6011,0.0017-0.9016V7.8715z"/>
	</g>
	<g id="Glyph_21_">
		<g>
			<path class="st2" d="M17.7894,3.8444c-0.0608,0.0052-0.6013,0.1013-0.6662,0.1145L9.6441,5.4678L9.6413,5.4683
				C9.446,5.5099,9.2935,5.5785,9.175,5.678C9.0324,5.7977,8.9533,5.9667,8.9234,6.1636c-0.0064,0.0422-0.017,0.127-0.017,0.2531
				c0,0,0.0001,7.6411,0.0001,9.3605c0,0.2185-0.0175,0.4316-0.1655,0.6124c-0.1479,0.1808-0.3315,0.2357-0.5456,0.2788
				c-0.1628,0.0328-0.3256,0.0657-0.4883,0.0984c-0.6179,0.1246-1.0198,0.209-1.3841,0.3503
				c-0.3481,0.135-0.6088,0.3071-0.8163,0.5247c-0.4114,0.4312-0.579,1.0164-0.5214,1.5642
				c0.0492,0.4675,0.2595,0.9148,0.6206,1.2458c0.2436,0.2234,0.5483,0.3934,0.9079,0.4656
				c0.3727,0.075,0.7696,0.0486,1.3494-0.0684c0.3089-0.0623,0.5982-0.1596,0.874-0.3224c0.2723-0.1608,0.5061-0.3751,0.6884-0.6367
				c0.1829-0.2623,0.3015-0.5536,0.3666-0.8633c0.067-0.3192,0.0835-0.6083,0.0835-0.9269L9.8757,9.981
				c0-0.4351,0.1232-0.5497,0.4739-0.6344c0,0,6.217-1.2538,6.5065-1.3103c0.405-0.0778,0.5952,0.0378,0.5952,0.4619l-0.0001,5.5422
				c0,0.2198-0.0024,0.4414-0.1516,0.6236c-0.148,0.1808-0.3315,0.2357-0.5456,0.2788c-0.1628,0.0328-0.3256,0.0656-0.4883,0.0984
				c-0.6179,0.1246-1.0198,0.209-1.3841,0.3503c-0.348,0.1351-0.6088,0.3072-0.8163,0.5247
				c-0.4114,0.4312-0.5938,1.0164-0.5362,1.5642c0.0492,0.4675,0.2743,0.9148,0.6354,1.2458
				c0.2436,0.2234,0.5484,0.3887,0.9079,0.461c0.3727,0.075,0.7696,0.0486,1.3494-0.0684c0.3089-0.0623,0.5982-0.155,0.874-0.3178
				c0.2724-0.1608,0.5062-0.3751,0.6885-0.6367c0.1829-0.2623,0.3015-0.5536,0.3666-0.8633
				c0.067-0.3192,0.0699-0.6083,0.0699-0.9269V4.5057C18.4207,4.0748,18.1936,3.8094,17.7894,3.8444z"/>
		</g>
	</g>
</g>
</svg>
