<svg width="393" height="100" viewBox="0 0 393 100" fill="none" xmlns="http://www.w3.org/2000/svg">
<path d="M50 98C76.5097 98 98 76.5097 98 50C98 23.4903 76.5097 2 50 2C23.4903 2 2 23.4903 2 50C2 76.5097 23.4903 98 50 98Z" fill="#EA4C89"/>
<path fill-rule="evenodd" clip-rule="evenodd" d="M50 0C22.397 0 0 22.397 0 50C0 77.603 22.397 100 50 100C77.5488 100 100 77.603 100 50C100 22.397 77.5488 0 50 0ZM83.026 23.0477C88.9913 30.3145 92.5705 39.5879 92.679 49.6204C91.269 49.3492 77.1692 46.4751 62.961 48.2646C62.6356 47.5597 62.3644 46.8004 62.0391 46.0412C61.1714 43.9805 60.1952 41.8655 59.2191 39.859C74.9458 33.4599 82.1041 24.2408 83.026 23.0477ZM50 7.37527C60.846 7.37527 70.7701 11.4425 78.308 18.1128C77.5488 19.1974 71.0954 27.82 55.9111 33.5141C48.9154 20.6616 41.1605 10.141 39.9675 8.5141C43.167 7.75488 46.5293 7.37527 50 7.37527ZM31.833 11.3883C32.9718 12.9067 40.564 23.4816 47.6681 36.0629C27.7115 41.3774 10.0868 41.269 8.18872 41.269C10.9544 28.0369 19.9024 17.0282 31.833 11.3883ZM7.26681 50.0542C7.26681 49.6204 7.26681 49.1866 7.26681 48.7527C9.11063 48.8069 29.8265 49.0781 51.1388 42.679C52.3861 45.0651 53.5249 47.5054 54.6095 49.9458C54.0672 50.1085 53.4707 50.2712 52.9284 50.4338C30.9111 57.538 19.1974 76.9523 18.2213 78.5792C11.4425 71.0412 7.26681 61.0087 7.26681 50.0542ZM50 92.7332C40.1302 92.7332 31.0195 89.3709 23.8069 83.731C24.5662 82.1584 33.243 65.4555 57.321 57.0499C57.4295 56.9957 57.4837 56.9957 57.5922 56.9414C63.6117 72.5054 66.0521 85.5748 66.7028 89.3167C61.551 91.5401 55.9111 92.7332 50 92.7332ZM73.807 85.4122C73.3731 82.8091 71.0955 70.3362 65.5098 54.9892C78.9046 52.8742 90.6182 56.3449 92.0824 56.833C90.2386 68.7093 83.4056 78.9588 73.807 85.4122Z" fill="#C32361"/>
<path fill-rule="evenodd" clip-rule="evenodd" d="M390.117 62.3971C389.27 61.7817 388.599 61.6938 388.045 62.866C378.534 83.526 362.518 73.2107 364.123 74.1192C367.682 72.4781 377.018 64.9759 375.617 54.5726C374.771 48.2134 369.345 45.4001 363.569 46.4258C353.504 48.1841 349.828 59.0856 351.695 68.727C352.016 70.3974 352.599 71.7455 353.212 73.0935C341.863 82.3832 337.342 64.8001 336.816 62.6902C336.788 62.5729 345.598 55.2173 348.048 37.6636C350.616 19.2892 344.781 15.9191 338.801 16.0364C327.744 16.2415 324.768 39.4219 328.764 58.734C328.444 58.8219 326.868 59.701 324.36 59.7889C322.551 54.0744 314.82 49.0633 312.807 50.9974C307.76 55.8328 314.032 65.269 318.467 66.0016C315.812 82.4418 299.183 78.3684 302.275 57.7669C307.672 47.6859 311.815 32.6524 311.057 23.5971C310.794 20.4028 308.431 16.095 303.092 16.3001C292.823 16.7104 291.715 39.8907 292.911 56.3603C292.852 55.95 292.269 58.353 288.068 59.5545C287.076 54.0159 278.178 48.4186 276.078 51.1146C272.169 56.1258 278.966 65.0639 282.175 65.6793C279.52 82.1195 262.891 78.046 265.984 57.4445C271.41 47.3636 275.523 32.3593 274.794 23.3041C274.532 20.1098 272.169 15.8019 266.829 16.0071C256.56 16.4173 255.452 39.5977 256.648 56.0672C256.59 55.6569 256.006 58.1479 251.63 59.3201C251.485 52.111 242.558 48.8288 240.399 51.1146C236.577 55.2173 241.274 63.6279 245.62 65.6793C242.966 82.1195 226.337 78.046 229.429 57.4445C234.827 47.3636 238.969 32.33 238.211 23.2747C237.977 20.1098 235.614 15.8019 230.275 16.0071C220.006 16.4173 219.19 40.7699 220.386 57.2394C217.001 71.804 205.653 89.9734 207.141 53.5469C207.287 50.9974 207.433 50.0303 206.178 49.0633C205.216 48.3307 203.057 48.6823 201.889 48.7116C200.46 48.7702 200.081 49.6201 199.789 50.8802C199.06 54.1623 198.914 57.3566 198.797 61.7231C198.739 63.7744 198.564 64.7122 197.776 67.4962C196.988 70.2802 192.554 75.35 190.104 74.5001C186.719 73.328 187.828 63.7452 188.47 57.1515C188.995 51.9352 187.303 49.6201 182.985 48.7702C180.447 48.2428 178.901 48.3307 176.275 47.4808C173.767 46.6896 173.212 41.9421 167.903 43.5246C164.985 44.4038 166.852 50.5872 166.152 55.188C162.71 77.7823 155.562 78.3977 152.237 67.4376C167.173 30.6303 156.525 16.1243 150.311 16.1243C143.835 16.1243 136.425 20.608 139.546 49.327C138.029 48.8874 137.562 48.653 135.87 48.653C126.447 48.6237 120 56.3017 120 65.7672C120 75.2328 126.447 82.9107 135.9 82.9107C141.472 82.9107 145.381 80.3612 148.357 76.4343C150.282 79.2183 152.645 82.9693 156.963 82.7935C169.799 82.2953 173.533 55.8328 173.971 54.3382C175.342 54.5434 176.655 54.9536 177.909 55.1588C180.01 55.4811 180.185 56.3309 180.126 58.4409C179.572 76.4343 182.869 82.7349 190.367 82.7349C194.538 82.7349 198.272 78.6029 200.84 75.6724C202.765 79.6579 205.799 82.6177 209.913 82.7349C219.831 82.9693 223.653 67.0859 223.303 69.1666C223.04 70.8077 226.512 82.6177 236.752 82.6763C249.413 82.7349 251.776 68.7564 252.039 66.412C252.097 66.0016 252.068 65.943 252.039 66.412C252.039 66.4412 252.039 66.4999 252.039 66.5584C256.065 65.7965 258.136 63.6573 258.136 63.6573C258.136 63.6573 261.374 82.9107 273.306 82.7056C285.705 82.4711 288.068 69.8406 288.36 67.379C288.418 66.8515 288.389 66.7929 288.36 67.379C288.36 67.4083 288.36 67.4376 288.36 67.4376C293.144 65.6793 294.399 63.9503 294.399 63.9503C294.399 63.9503 296.966 82.8228 309.569 82.9986C320.801 83.1454 324.972 71.5696 325.001 66.7343C326.898 66.7636 330.399 65.5914 330.311 65.5328C330.311 65.5328 334.424 82.0316 345.919 82.8814C351.316 83.2915 355.371 79.8337 357.676 78.2512C363.102 82.6763 381.16 88.3031 392.567 68.8735C394.201 66.1189 390.729 62.8074 390.117 62.3971ZM135.433 76.4929C129.919 76.4929 126.389 71.3645 126.389 65.8551C126.389 60.3458 129.627 55.2173 135.141 55.2173C137.621 55.2173 138.992 55.4811 140.946 57.1808C141.297 58.5581 142.288 61.7524 142.784 63.2177C143.426 65.1518 144.214 66.8222 144.972 68.6098C143.835 73.24 140.217 76.4929 135.433 76.4929ZM148.852 57.3274C148.619 56.9464 148.677 57.1808 148.415 56.8291C147.423 54.0744 145.468 47.9204 145.235 40.9164C144.972 33.0041 146.285 23.7143 150.165 23.7143C152.791 23.7143 155.592 42.5283 148.852 57.3274ZM226.483 49.0926C225.87 44.4038 225.841 23.4506 230.83 24.0367C233.601 25.1503 229.079 44.9019 226.483 49.0926ZM263.037 49.0926C262.425 44.4038 262.395 23.4506 267.384 24.0367C270.156 25.1503 265.633 44.9019 263.037 49.0926ZM299.3 49.3856C298.687 44.6968 298.658 23.7436 303.646 24.3297C306.418 25.414 301.896 45.195 299.3 49.3856ZM339.326 22.7766C343.906 22.3077 343.702 42.3817 334.541 55.0415C333.345 50.4699 331.536 24.3591 339.326 22.7766ZM358.58 66.0016C357.121 58.5289 360.914 53.6349 364.823 53.1074C366.194 52.9023 368.178 53.7814 368.557 55.4518C369.199 58.5874 368.47 63.2469 359.689 69.1373C359.718 69.1666 358.901 67.6427 358.58 66.0016ZM203.407 42.9678C206.528 42.9678 209.066 40.4182 209.066 37.2826C209.066 34.147 206.528 31.5974 203.407 31.5974C200.285 31.5974 197.747 34.147 197.747 37.2826C197.747 40.4182 200.285 42.9678 203.407 42.9678Z" fill="white"/>
</svg>
