<svg width="400" height="122" viewBox="0 0 400 122" fill="none" xmlns="http://www.w3.org/2000/svg">
<g clip-path="url(#clip0_350_2594)">
<path d="M366.742 58.8764H352.809C343.82 58.8764 338.876 65.618 338.876 77.3034V119.101H311.91V58.8764H300.674C291.685 58.8764 286.742 65.618 286.742 77.3034V119.101H259.775V36.4045H286.742V48.9888C291.236 39.1011 297.079 36.4045 306.067 36.4045H338.876V48.9888C343.371 39.1011 349.213 36.4045 358.202 36.4045H367.191L366.742 58.8764ZM253.483 84.0449H197.753C199.101 93.4831 204.944 98.427 214.382 98.427C221.573 98.427 226.517 95.2809 228.315 90.3371L252.135 97.0786C246.292 111.461 231.91 120 214.382 120C185.169 120 171.685 97.0786 171.685 77.3034C171.685 57.9775 183.371 35.0562 212.584 35.0562C243.596 35.0562 253.933 58.427 253.933 75.9551C253.933 80 253.933 82.2472 253.483 84.0449V84.0449ZM227.865 68.3146C227.416 61.1236 222.022 54.8315 213.034 54.8315C204.494 54.8315 199.551 58.427 197.753 68.3146H227.865ZM124.944 119.101H148.315L177.978 36.8539H151.011L136.629 84.9438L122.247 36.4045H95.2809L124.944 119.101ZM15.2809 119.101H41.7978V58.8764H67.4157V119.101H93.9326V36.4045H41.7978V31.4607C41.7978 26.0674 45.8427 22.4719 51.6854 22.4719H67.4157V0H47.6405C28.3146 0 15.2809 12.1348 15.2809 29.6629V36.4045H0V58.8764H15.2809V119.101Z" fill="white"/>
<path d="M383.371 121.348C392.36 121.348 400 113.708 400 104.719C400 95.7304 392.36 88.0899 383.371 88.0899C374.382 88.0899 366.742 95.7304 366.742 104.719C366.742 113.708 374.382 121.348 383.371 121.348Z" fill="#1DBF73"/>
</g>
<defs>
<clipPath id="clip0_350_2594">
<rect width="400" height="121.348" fill="white"/>
</clipPath>
</defs>
</svg>
