<?xml version="1.0" encoding="UTF-8"?>
<svg version="1.1"  viewBox="87 180 480 120" xmlns="http://www.w3.org/2000/svg">
<style type="text/css">
	.st0{fill-rule:evenodd;clip-rule:evenodd;fill:#fff;}
	.st1{fill:#fff;}
</style>
<path class="st0" d="m557.33 179.62h-102.05c-4.88 0-9.03 3.86-9.03 8.62v102.51c0 4.76 2.72 8.62 7.6 8.62h102.05c4.89 0 10.1-3.86 10.1-8.62v-102.51c0-4.75-3.79-8.62-8.67-8.62zm-65.46 45.62h16.12v8.22h0.18c2.46-4.43 9.72-8.93 18.69-8.93 17.23 0 22.03 9.15 22.03 26.09v31.65h-17.11v-28.53c0-7.58-3.03-14.24-10.11-14.24-8.6 0-12.7 5.82-12.7 15.38v27.39h-17.11v-57.03zm-28.51 57.03h17.11v-57.02h-17.11v57.02zm19.24-76.98c0 5.91-4.78 10.69-10.69 10.69s-10.69-4.78-10.69-10.69 4.78-10.69 10.69-10.69 10.69 4.78 10.69 10.69z"/>
		<path class="st1" d="m429.14 282.27h-15.97v-6.79h-0.17c-3.55 4.12-9.72 7.5-20.18 7.5-14.26 0-26.53-10.73-26.53-29.16 0-17.56 12.1-29.29 27.07-29.29 9.27 0 15.02 3.3 18.5 7.5h0.17v-35.3h17.11v85.54zm-31.48-44.91c-9.78 0-15.28 6.97-15.28 16.25s5.5 16.54 15.28 16.54c9.79 0 15.52-7.08 15.52-16.54 0-9.73-5.73-16.25-15.52-16.25z"/>
		<path class="st1" d="m358.78 273.08c-4.04 5.23-12.35 9.9-25.77 9.9-17.91 0-29.32-11.86-29.32-30.49 0-16.55 10.33-27.96 29.82-27.96 16.83 0 27.21 11.05 27.21 30.49 0 1.94-0.31 3.87-0.31 3.87h-40.57l0.1 1.76c1.12 4.92 4.84 10.93 13.35 10.93 7.44 0 12.53-4 14.84-7.13l10.65 8.63zm-14.53-25.03c0.11-6.02-4.3-12.12-11.26-12.12-8.28 0-12.7 6.47-13.16 12.12h24.42z"/>
		<polygon class="st1" points="303.69 225.24 283.73 225.24 263.77 248.05 263.77 196.73 246.67 196.73 246.67 282.27 263.77 282.27 263.77 253.76 284.87 282.27 305.06 282.27 280.88 251.09"/>
		<path class="st1" d="m178.24 225.24h16.12v8.22h0.18c2.46-4.43 9.72-8.93 18.69-8.93 17.23 0 22.03 10.93 22.03 26.09v31.65h-17.11v-28.53c0-8.39-3.03-14.24-10.11-14.24-8.6 0-12.7 6.81-12.7 15.38v27.39h-17.11v-57.03z"/>
		<path class="st1" d="m149.73 282.27h17.11v-57.02h-17.11v57.02zm8.56-66.72c5.67 0 10.26-4.6 10.26-10.26s-4.59-10.26-10.26-10.26c-5.66 0-10.27 4.6-10.27 10.26s4.6 10.26 10.27 10.26z"/>
		<polygon class="st1" points="104.11 196.73 87 196.73 87 282.27 138.32 282.27 138.32 265.16 104.11 265.16"/>
</svg>
