<svg width="193" height="39" viewBox="0 0 193 39" fill="none" xmlns="http://www.w3.org/2000/svg">
<path d="M67.1272 33.178C64.5512 32.484 62.1872 30.5269 60.9778 28.0871C60.0509 26.2173 60.0521 26.2304 60.0499 17.6369C59.9401 10.2032 59.9821 9.96332 60.4776 9.24639C61.5301 7.4912 63.8511 7.11637 65.3728 8.45585C66.4412 9.39629 66.5262 9.71565 66.5262 12.7928V15.4613H71.0147C73.7603 15.4613 75.7647 15.5173 76.1765 15.6057C78.5189 16.108 79.4082 18.9092 77.7818 20.6625C77.5901 20.8692 77.1954 21.1666 76.9045 21.3236C76.394 21.599 76.2046 21.6104 71.4509 21.6494L66.5262 21.6898V22.8799C66.5262 24.6107 66.7057 25.177 67.5091 25.9804C68.4473 26.9186 68.6977 26.9628 73.0959 26.9663C76.5081 26.9688 76.815 26.9886 77.3672 27.2385C79.462 28.1867 79.9839 30.7115 78.4392 32.4249C77.5364 33.4264 77.4768 33.4364 72.4755 33.4307C68.5719 33.4263 67.9375 33.3963 67.1272 33.178H67.1272ZM87.1153 33.2348C85.0814 32.742 82.9823 31.1967 81.6993 29.2477C80.517 27.4516 80.2865 26.1879 80.2804 21.4677C80.2752 17.397 80.3569 16.8843 81.14 16.078C81.8649 15.3317 82.3267 15.1382 83.3931 15.1342C84.2074 15.131 84.4129 15.1827 84.9761 15.5309C85.3768 15.7786 85.7756 16.1773 86.0234 16.5777C86.5193 17.4373 86.4284 17.7979 86.4896 21.3337C86.5543 25.3581 86.5621 25.4533 86.8657 25.9416C87.8912 27.591 90.0117 27.8341 91.4183 26.4634C92.2304 25.6721 92.3067 25.2072 92.3067 21.0509C92.3067 17.6332 92.3221 17.4032 92.5861 16.8772C93.1148 15.8236 93.8815 15.2659 95.0147 15.1106C96.2273 14.9444 97.535 15.6592 98.1615 16.8306C98.4407 17.3527 98.4575 17.567 98.5205 21.4208C98.498 24.6267 98.6488 25.5649 98.9513 26.0139C99.9188 27.4746 101.952 27.7888 103.222 26.6738C104.133 25.8746 104.132 25.8773 104.207 21.4106C104.271 17.5766 104.289 17.3514 104.566 16.8306C105.729 14.6449 108.673 14.5071 109.953 16.5785C110.781 17.7264 110.419 20.1554 110.419 21.7218C110.479 23.783 110.358 26.426 109.997 27.2405C109.017 30.0081 106.833 32.2062 104.205 33.0701C103.014 33.462 100.387 33.556 99.2039 33.2492C98.0631 32.9534 97.0758 32.5003 96.1363 31.8412L95.3475 31.2879L94.5589 31.8411C93.6052 32.5101 92.6399 32.9632 91.5849 33.237C90.6015 33.4923 88.173 33.4911 87.1153 33.2348V33.2348ZM114.574 33.2541C113.971 32.9918 113.219 32.2836 112.89 31.6693C112.603 31.1323 112.601 31.073 112.601 24.3192C112.601 17.8201 112.612 17.4867 112.86 16.9874C113.89 14.9111 116.548 14.4438 118.16 16.0558C119.162 17.0583 119.16 17.0335 119.117 24.5328C119.08 31.0056 119.074 31.1378 118.793 31.6568C118.424 32.3397 117.753 32.9779 117.133 33.2366C116.533 33.4867 115.13 33.4963 114.574 33.2541V33.2541ZM128.447 33.1796C125.508 32.4091 122.95 30.0874 121.87 27.2105C121.287 25.6581 121.24 24.8672 121.285 17.18C121.326 10.0896 121.331 9.96621 121.612 9.44582C123.012 6.85072 126.845 7.17923 127.676 9.9656C127.816 10.4357 127.871 11.2898 127.871 13.0272V15.4369L131.011 15.4848C133.914 15.529 134.19 15.5539 134.679 15.8154C136.977 17.044 136.988 20.0924 134.698 21.3158C134.185 21.5901 133.953 21.6112 131 21.6524L127.849 21.6963L127.893 23.2391C127.944 25.0396 128.149 25.5792 129.043 26.264C129.825 26.8637 130.317 26.9616 132.564 26.9639C134.367 26.9656 134.608 26.9943 135.216 27.2772C137.755 28.4596 137.752 32.0399 135.211 33.1942C134.426 33.551 129.826 33.5411 128.447 33.1796H128.447ZM145.279 33.186C141.95 32.2753 139.216 29.4785 138.354 26.1004C138.142 25.27 138.119 24.4318 138.118 17.6428C138.168 10.5958 137.818 10.8713 138.478 9.42101C139.238 7.97985 140.807 7.34483 142.467 7.80588C143.159 7.99809 144.324 9.1628 144.516 9.85505C144.596 10.1432 144.66 11.4959 144.66 12.9163L144.661 15.4613H147.353C150.437 15.4613 151.256 15.5756 151.999 16.1093C153.607 17.2651 153.644 19.8549 152.068 20.9967C151.281 21.5663 150.538 21.6751 147.431 21.6751H144.661V22.8726C144.661 24.4497 144.842 25.1128 145.466 25.8219C146.317 26.7887 146.633 26.8808 149.365 26.9601C151.744 27.0292 151.759 27.0316 152.406 27.4309C153.147 27.8882 153.832 28.8989 153.965 29.7304C154.157 30.9339 153.527 32.2892 152.439 33.0094L151.887 33.3755L149.034 33.4042C146.599 33.4286 146.049 33.3967 145.279 33.186L145.279 33.186ZM161.782 33.2458C159.849 32.7239 158.425 31.8661 157.031 30.3842C155.338 28.5842 154.574 26.6003 154.579 24.0132C154.582 22.4328 154.853 21.1974 155.482 19.8903C156.147 18.5096 156.876 17.6093 157.951 16.8426C161.079 14.6105 166.639 14.471 170.141 16.5368C171.395 17.2763 172.699 18.6758 173.334 19.9641C174.618 22.5691 174.489 24.9287 173.02 25.6958C172.511 25.9612 172.274 25.9733 166.905 26.0091L161.319 26.0462V26.3931C161.319 26.9338 162.18 27.6666 163.128 27.9325C163.774 28.1137 164.553 28.1535 167.476 28.1541C169.453 28.1541 171.249 28.2139 171.515 28.2876C173.791 28.9198 174.247 31.934 172.244 33.1076C171.596 33.5461 171.204 33.4359 167.059 33.433C163.622 33.4265 162.274 33.3787 161.782 33.2458V33.2458ZM167.594 21.5098C167.345 20.6757 166.632 20.1819 165.327 19.9406C163.939 19.6841 161.998 20.2582 161.624 21.0361C161.459 21.3787 161.302 21.7687 161.302 21.7687C161.302 21.7687 162.457 21.8073 164.505 21.8073H167.683L167.594 21.5098ZM177.571 33.1871C176.89 32.8169 176.164 31.9571 175.991 31.3153C175.89 30.9401 175.858 29.4723 175.891 26.7797C175.94 22.8578 175.946 22.7828 176.302 21.7128C177.241 18.8946 179.751 16.5571 182.671 15.7823C183.744 15.4974 188.699 15.361 189.78 15.5865C191.281 15.8996 192.256 17.0578 192.256 18.5272C192.256 19.7803 191.687 20.75 190.62 21.3138C190.118 21.5792 189.829 21.6074 186.968 21.6716C184.001 21.7381 183.838 21.7551 183.362 22.0512C182.734 22.442 182.275 23.0445 182.09 23.7243C182.003 24.0433 181.945 25.6199 181.945 27.6977C181.944 31.1413 181.944 31.1423 181.6 31.8319C181.368 32.2976 181.057 32.6598 180.642 32.9473C180.102 33.321 179.906 33.3772 179.035 33.4084C178.256 33.4363 177.942 33.3889 177.571 33.1871V33.1871ZM114.411 13.1357C112.312 12.0899 111.931 9.32761 113.674 7.79725C114.353 7.20108 114.899 7 115.84 7C117.155 7 118.177 7.61447 118.767 8.7608C120.18 11.5018 117.179 14.5151 114.411 13.1357V13.1357Z" fill="white"/>
<path d="M43.0859 9.70895C43.1152 10.1321 43.1152 10.5552 43.1152 10.9822C43.1152 23.9937 33.209 39 15.0952 39V38.9922C9.7443 39 4.50457 37.4674 0 34.5777C0.778062 34.6713 1.56002 34.7181 2.34394 34.72C6.77831 34.7239 11.0859 33.2362 14.5745 30.4966C10.3605 30.4166 6.6652 27.6693 5.37428 23.6584C6.85046 23.9431 8.37148 23.8846 9.82035 23.4887C5.22608 22.5606 1.92078 18.5243 1.92078 13.8368C1.92078 13.7939 1.92078 13.753 1.92078 13.712C3.2897 14.4744 4.82243 14.8976 6.39025 14.9444C2.06313 12.0527 0.729311 6.29666 3.34235 1.79635C8.34223 7.94821 15.7192 11.6881 23.6383 12.0839C22.8446 8.66382 23.9288 5.07994 26.4873 2.67574C30.4536 -1.05242 36.6918 -0.861334 40.4202 3.10277C42.6257 2.66794 44.7396 1.85874 46.674 0.712217C45.9388 2.99162 44.4002 4.92785 42.3449 6.15822C44.2969 5.92814 46.204 5.40557 48 4.60807C46.6779 6.58915 45.0126 8.31479 43.0859 9.70895Z" fill="#1D9BF0"/>
</svg>
